Coordinates
version=1
nRows=13
nColumns=63
inDegrees=yes

Units are S.I. units (second, meters, Newtons, ...)
If the header above contains a line with 'inDegrees', this indicates whether rotational values are in degrees (yes) or radians (no).

endheader
time	pelvis_tilt	pelvis_list	pelvis_rotation	pelvis_tx	pelvis_ty	pelvis_tz	hip_flexion_r	hip_adduction_r	hip_rotation_r	knee_angle_r	knee_angle_r_beta	ankle_angle_r	subtalar_angle_r	mtp_angle_r	hip_flexion_l	hip_adduction_l	hip_rotation_l	knee_angle_l	knee_angle_l_beta	ankle_angle_l	subtalar_angle_l	mtp_angle_l	L5_S1_Flex_Ext	L5_S1_Lat_Bending	L5_S1_axial_rotation	L4_L5_Flex_Ext	L4_L5_Lat_Bending	L4_L5_axial_rotation	L3_L4_Flex_Ext	L3_L4_Lat_Bending	L3_L4_axial_rotation	L2_L3_Flex_Ext	L2_L3_Lat_Bending	L2_L3_axial_rotation	L1_L2_Flex_Ext	L1_L2_Lat_Bending	L1_L2_axial_rotation	L1_T12_Flex_Ext	L1_T12_Lat_Bending	L1_T12_axial_rotation	Abs_r3	Abs_r2	Abs_r1	Abs_t1	Abs_t2	neck_flexion	neck_bending	neck_rotation	arm_flex_r	arm_add_r	arm_rot_r	elbow_flex_r	pro_sup_r	wrist_flex_r	wrist_dev_r	arm_flex_l	arm_add_l	arm_rot_l	elbow_flex_l	pro_sup_l	wrist_flex_l	wrist_dev_l
1.016949	0.259894	-5.754898	95.491833	0.198438	0.658371	0.619887	4.016152	1.779690	-2.631854	2.346592	0.040956	20.573654	-7.223748	0.000000	7.035715	-1.860679	-0.907573	5.155984	0.089989	27.376174	10.879179	0.000000	-0.184505	0.542132	-0.921183	-0.342644	0.721035	-0.978757	-0.303123	1.318140	-0.978757	-0.210871	1.318140	-0.806035	-0.171331	1.105515	-0.748461	-0.105426	0.839762	-0.690887	-1.317901	6.132705	-5.123345	0.000000	0.000000	26.355350	-5.588228	2.286458	13.557006	-15.545537	71.562920	24.882565	45.947317	-2.260441	1.790002	4.185673	-11.478388	35.376121	39.142598	82.374956	-9.882550	1.081887
1.033898	0.180445	-5.717106	95.510298	0.198698	0.658342	0.620137	3.980182	1.713799	-2.498658	2.356729	0.041133	20.219818	-7.750134	0.000000	7.021839	-1.797140	-0.841024	5.209310	0.090920	27.328736	10.862741	0.000000	-0.192002	0.524001	-0.893974	-0.356566	0.696921	-0.949847	-0.315439	1.274056	-0.949847	-0.219439	1.274056	-0.782227	-0.178293	1.068543	-0.726354	-0.109710	0.811677	-0.670480	-1.371448	5.927603	-4.972013	0.000000	0.000000	26.293400	-5.489451	1.936889	13.543938	-15.473110	70.989028	24.871270	47.954005	-2.407664	1.566776	4.113106	-11.534407	35.021960	39.321030	82.527972	-9.892199	1.406889
1.050847	0.118315	-5.687486	95.490785	0.199023	0.658351	0.620378	3.952680	1.673684	-2.201098	2.354525	0.041094	19.809036	-8.456258	0.000000	7.003589	-1.754582	-0.738763	5.249047	0.091613	27.250891	10.769724	0.000000	-0.197981	0.508694	-0.862659	-0.367671	0.676563	-0.916575	-0.325263	1.236839	-0.916575	-0.226273	1.236839	-0.754826	-0.183845	1.037329	-0.700910	-0.113126	0.787968	-0.646994	-1.414159	5.754452	-4.797850	0.000000	0.000000	26.232929	-5.418246	1.621939	13.592478	-15.401236	70.664065	24.847943	49.916522	-2.598877	1.191008	4.166246	-11.580892	35.014818	39.349986	82.801275	-10.256672	1.480377
1.067797	0.083929	-5.673595	95.444699	0.199354	0.658397	0.620617	3.951266	1.660574	-1.889737	2.358911	0.041171	19.412117	-9.111289	0.000000	6.993517	-1.739681	-0.602376	5.277046	0.092102	27.147147	10.599434	0.000000	-0.201818	0.498381	-0.827935	-0.374796	0.662847	-0.879681	-0.331567	1.211763	-0.879681	-0.230658	1.211763	-0.724444	-0.187408	1.016298	-0.672698	-0.115319	0.771992	-0.620952	-1.441566	5.637785	-4.604729	0.000000	0.000000	26.184049	-5.388781	1.350676	13.661807	-15.344324	70.413733	24.828040	51.852438	-2.817007	0.747609	4.323242	-11.592882	35.183411	39.228595	83.193887	-10.671192	1.364773
1.084746	0.074583	-5.679470	95.347166	0.199704	0.658480	0.620843	3.979631	1.674226	-1.489606	2.365970	0.041294	19.014045	-9.779005	0.000000	6.991185	-1.751309	-0.499422	5.286069	0.092259	27.024047	10.388019	0.000000	-0.203734	0.493353	-0.787844	-0.378354	0.656159	-0.837084	-0.334714	1.199537	-0.837084	-0.232847	1.199537	-0.689363	-0.189187	1.006045	-0.640123	-0.116414	0.764203	-0.590883	-1.455251	5.580903	-4.381752	0.000000	0.000000	26.157695	-5.403469	1.156262	13.759608	-15.291941	70.326833	24.793178	53.583445	-3.092821	0.280197	4.561200	-11.558534	35.465915	38.956881	83.656261	-11.105146	1.102868
1.101695	0.095145	-5.716081	95.218877	0.200042	0.658581	0.621056	4.055295	1.710025	-1.219841	2.392954	0.041765	18.696714	-10.171344	0.000000	7.013347	-1.789327	-0.329891	5.274194	0.092052	26.876623	10.041828	0.000000	-0.202123	0.494370	-0.746427	-0.375362	0.657512	-0.793078	-0.332067	1.202010	-0.793078	-0.231006	1.202010	-0.653123	-0.187691	1.008118	-0.606472	-0.115493	0.765778	-0.559820	-1.443742	5.592407	-4.151402	0.000000	0.000000	26.162087	-5.462828	1.063305	13.874907	-15.247081	70.384586	24.744554	55.049462	-3.402321	-0.153313	4.886548	-11.472241	35.953693	38.506168	83.987671	-11.555898	0.689081
1.118644	0.138057	-5.777585	95.057052	0.200345	0.658707	0.621269	4.165127	1.765157	-0.920037	2.421539	0.042264	18.389736	-10.519894	0.000000	7.057038	-1.848414	-0.214699	5.242647	0.091501	26.738920	9.700653	0.000000	-0.198365	0.500816	-0.702959	-0.368383	0.666085	-0.746893	-0.325893	1.217683	-0.746893	-0.226711	1.217683	-0.615089	-0.184201	1.021263	-0.571154	-0.113345	0.775763	-0.527219	-1.416898	5.665325	-3.909645	0.000000	0.000000	26.194931	-5.572803	1.053349	14.013482	-15.200110	70.650733	24.656018	56.127469	-3.753365	-0.562308	5.307900	-11.336183	36.746278	37.872111	84.033352	-12.050479	0.088475
1.135593	0.202967	-5.866075	94.863437	0.200651	0.658840	0.621489	4.313995	1.841306	-0.597583	2.457649	0.042894	18.094369	-10.829084	0.000000	7.129013	-1.934419	-0.248169	5.196440	0.090695	26.631518	9.487894	0.000000	-0.191925	0.511877	-0.661565	-0.356424	0.680796	-0.702913	-0.315314	1.244578	-0.702913	-0.219351	1.244578	-0.578870	-0.178222	1.043820	-0.537522	-0.109666	0.792897	-0.496174	-1.370901	5.790455	-3.679429	0.000000	0.000000	26.256050	-5.689342	1.160828	14.224292	-15.142013	71.356767	24.512219	56.537705	-4.117412	-0.943491	5.764872	-11.143754	37.621758	37.101715	83.943676	-12.370613	-0.567638
1.152542	0.276371	-5.970868	94.638450	0.200956	0.658977	0.621735	4.491788	1.925409	-0.292360	2.507320	0.043761	17.846270	-11.038662	0.000000	7.219425	-2.033656	-0.415791	5.139510	0.089701	26.558325	9.383281	0.000000	-0.184475	0.525605	-0.619085	-0.342588	0.699055	-0.657777	-0.303073	1.277956	-0.657777	-0.210836	1.277956	-0.541699	-0.171303	1.071814	-0.503006	-0.105409	0.814162	-0.464313	-1.317684	5.945751	-3.443163	0.000000	0.000000	26.342534	-5.822142	1.340819	14.481831	-15.080304	72.369891	24.334274	56.386784	-4.477502	-1.298213	6.260342	-10.916734	38.607851	36.226112	83.690827	-12.572164	-1.293043
1.169492	0.346609	-6.075382	94.362850	0.201280	0.659141	0.622059	4.704939	1.990410	-0.409573	2.624647	0.045809	17.798205	-10.547093	0.000000	7.304541	-2.130032	-0.574823	5.062534	0.088358	26.478710	9.171932	0.000000	-0.178690	0.540439	-0.568300	-0.331845	0.718784	-0.603819	-0.293570	1.314024	-0.603819	-0.204225	1.314024	-0.497262	-0.165931	1.102064	-0.461744	-0.102103	0.837140	-0.426225	-1.276364	6.113557	-3.160714	0.000000	0.000000	26.445594	-5.963769	1.569955	14.817012	-15.027440	73.852181	24.122268	55.390026	-4.850575	-1.711227	6.900097	-10.703024	40.208221	35.207573	82.629803	-12.789047	-2.244539
1.186441	0.417459	-6.189663	94.073589	0.201612	0.659280	0.622429	4.935885	2.060208	-0.474680	2.754743	0.048079	17.758763	-10.107698	0.000000	7.408689	-2.232871	-0.832725	4.997987	0.087231	26.423577	9.054769	0.000000	-0.172188	0.555649	-0.517081	-0.319769	0.739013	-0.549398	-0.282887	1.351004	-0.549398	-0.196793	1.351004	-0.452446	-0.159893	1.133079	-0.420128	-0.098388	0.860700	-0.387811	-1.229918	6.285610	-2.875848	0.000000	0.000000	26.554895	-6.100786	1.820487	15.120600	-14.977091	75.183085	23.932411	54.325495	-5.209518	-2.050140	7.513193	-10.463503	41.653353	34.197853	81.745247	-12.944399	-3.143414
1.203390	0.484092	-6.302510	93.772863	0.201947	0.659409	0.622882	5.190040	2.117809	-0.845530	2.939613	0.051306	17.848310	-9.219192	0.000000	7.519919	-2.334659	-1.113905	4.950189	0.086397	26.369685	8.948823	0.000000	-0.166734	0.570380	-0.461754	-0.309642	0.758605	-0.490613	-0.273927	1.386822	-0.490613	-0.190560	1.386822	-0.404035	-0.154829	1.163119	-0.375175	-0.095272	0.883518	-0.346315	-1.190964	6.452251	-2.568136	0.000000	0.000000	26.658151	-6.242507	2.051781	15.413680	-14.943336	76.490656	23.771459	53.004805	-5.596282	-2.407738	8.178390	-10.242584	43.266328	33.164256	80.718526	-13.219435	-4.152598
1.220339	0.545950	-6.408994	93.464292	0.202287	0.659514	0.623376	5.443481	2.173400	-1.251615	3.144878	0.054888	17.961486	-8.277825	0.000000	7.626694	-2.432883	-1.352856	4.917003	0.085818	26.300211	8.784957	0.000000	-0.162928	0.584336	-0.405613	-0.302574	0.777167	-0.430963	-0.267674	1.420754	-0.430963	-0.186210	1.420754	-0.354911	-0.151295	1.191578	-0.329560	-0.093097	0.905136	-0.304209	-1.163779	6.610123	-2.255896	0.000000	0.000000	26.753233	-6.372414	2.284687	15.643593	-14.922471	77.462189	23.686315	51.852924	-6.009135	-2.697676	8.810737	-10.022373	44.743587	32.215128	79.936330	-13.628488	-5.051524
